<?xml version="1.0" encoding="UTF-8" standalone="no"?>
<!-- Created with Inkscape (http://www.inkscape.org/) -->

<svg
   width="41.771523mm"
   height="25.106298mm"
   viewBox="0 0 41.771523 25.106298"
   version="1.1"
   id="svg1968"
   inkscape:version="1.2 (1:1.2+202206011327+fc4e4096c5)"
   sodipodi:docname="cell.svg"
   xmlns:inkscape="http://www.inkscape.org/namespaces/inkscape"
   xmlns:sodipodi="http://sodipodi.sourceforge.net/DTD/sodipodi-0.dtd"
   xmlns:xlink="http://www.w3.org/1999/xlink"
   xmlns="http://www.w3.org/2000/svg"
   xmlns:svg="http://www.w3.org/2000/svg">
  <sodipodi:namedview
     id="namedview1970"
     pagecolor="#ffffff"
     bordercolor="#666666"
     borderopacity="1.0"
     inkscape:showpageshadow="2"
     inkscape:pageopacity="0.0"
     inkscape:pagecheckerboard="0"
     inkscape:deskcolor="#d1d1d1"
     inkscape:document-units="mm"
     showgrid="false"
     inkscape:zoom="0.75722503"
     inkscape:cx="-97.064937"
     inkscape:cy="-114.23289"
     inkscape:window-width="1862"
     inkscape:window-height="1016"
     inkscape:window-x="58"
     inkscape:window-y="27"
     inkscape:window-maximized="1"
     inkscape:current-layer="layer1" />
  <defs
     id="defs1965">
    <linearGradient
       id="Безымянный_градиент_15-2"
       x1="-1791.86"
       y1="3243.8799"
       x2="-1791.86"
       y2="3142.8201"
       gradientTransform="matrix(0.87,0.5,-1,0.58,5169.48,-526.54)"
       xlink:href="#%D0%91%D0%B5%D0%B7%D1%8B%D0%BC%D1%8F%D0%BD%D0%BD%D1%8B%D0%B9_%D0%B3%D1%80%D0%B0%D0%B4%D0%B8%D0%B5%D0%BD%D1%82_15" />
    <linearGradient
       id="Безымянный_градиент_15"
       x1="-215"
       y1="2299.9299"
       x2="-215"
       y2="2147.3201"
       gradientTransform="matrix(0.87,0.5,0,1.15,512.04,-2300.54)"
       gradientUnits="userSpaceOnUse">
      <stop
         offset="0.21"
         stop-color="#fff"
         stop-opacity="0"
         id="stop1236" />
      <stop
         offset="1"
         stop-color="#fff"
         stop-opacity="0.2"
         id="stop1238" />
    </linearGradient>
  </defs>
  <g
     inkscape:label="Layer 1"
     inkscape:groupmode="layer"
     id="layer1"
     transform="translate(-111.5413,-178.9245)">
    <g
       id="Mobile"
       transform="matrix(0.26458333,0,0,0.26458333,21.021154,78.944726)">
      <path
         class="cls-6"
         d="m 383.74,471.47 -39.37,-22.73 c -3.33,-1.93 -2.91,-5.29 0.94,-7.51 l 95.08,-54.9 c 3.85,-2.22 9.68,-2.46 13,-0.54 l 39.36,22.73 c 3.34,1.92 2.92,5.29 -0.93,7.51 l -95.09,54.9 c -3.84,2.22 -9.66,2.46 -12.99,0.54 z"
         id="path1416"
         style="opacity:0.4;fill:#d6d8e5" />
      <path
         class="cls-1"
         d="m 388.72,468.47 -39.36,-22.72 c -3.33,-1.93 -2.92,-5.29 0.93,-7.51 l 95.09,-54.9 c 3.85,-2.22 9.67,-2.46 13,-0.54 l 39.36,22.73 c 3.33,1.92 2.92,5.28 -0.93,7.51 l -95.09,54.89 c -3.84,2.23 -9.66,2.47 -13,0.54 z"
         id="path1418"
         style="fill:#b1b4c4" />
      <polygon
         class="cls-1"
         points="347.11,442.44 347.11,438.81 351.36,440.42 "
         id="polygon1420"
         style="fill:#b1b4c4" />
      <polygon
         class="cls-1"
         points="500,408.67 500,405.18 496.62,407.36 "
         id="polygon1422"
         style="fill:#b1b4c4" />
      <path
         class="cls-9"
         d="m 388.72,465.41 -39.36,-22.73 c -3.33,-1.92 -2.92,-5.29 0.93,-7.51 l 95.09,-54.9 c 3.85,-2.22 9.67,-2.46 13,-0.54 l 39.36,22.73 c 3.33,1.92 2.92,5.29 -0.93,7.51 l -95.09,54.9 c -3.84,2.22 -9.66,2.46 -13,0.54 z"
         id="path1424"
         style="fill:#616e84" />
      <ellipse
         class="cls-10"
         cx="353.75"
         cy="446.70001"
         rx="0.41999999"
         ry="0.73000002"
         transform="rotate(-30,353.76419,446.71083)"
         id="ellipse1426"
         style="fill:#757b89" />
      <ellipse
         class="cls-10"
         cx="355.64001"
         cy="447.79999"
         rx="0.41999999"
         ry="0.73000002"
         transform="rotate(-30,355.66682,447.82064)"
         id="ellipse1428"
         style="fill:#757b89" />
      <ellipse
         class="cls-10"
         cx="357.54001"
         cy="448.89001"
         rx="0.41999999"
         ry="0.73000002"
         transform="rotate(-30,357.55579,448.90679)"
         id="ellipse1430"
         style="fill:#757b89" />
      <ellipse
         class="cls-10"
         cx="359.42999"
         cy="449.98001"
         rx="0.41999999"
         ry="0.73000002"
         transform="rotate(-30,359.46342,449.99793)"
         id="ellipse1432"
         style="fill:#757b89" />
      <ellipse
         class="cls-10"
         cx="375.70001"
         cy="459.38"
         rx="0.41999999"
         ry="0.73000002"
         transform="matrix(0.87,-0.5,0.5,0.87,-179.36,249.41)"
         id="ellipse1434"
         style="fill:#757b89" />
      <ellipse
         class="cls-10"
         cx="377.60001"
         cy="460.47"
         rx="0.41999999"
         ry="0.73000002"
         transform="rotate(-30,377.61436,460.48146)"
         id="ellipse1436"
         style="fill:#757b89" />
      <ellipse
         class="cls-10"
         cx="379.48999"
         cy="461.56"
         rx="0.41999999"
         ry="0.73000002"
         transform="rotate(-30,379.51699,461.59127)"
         id="ellipse1438"
         style="fill:#757b89" />
      <ellipse
         class="cls-10"
         cx="381.38"
         cy="462.66"
         rx="0.41999999"
         ry="0.73000002"
         transform="rotate(-30,381.40596,462.67742)"
         id="ellipse1440"
         style="fill:#757b89" />
      <path
         class="cls-10"
         d="M 370.17,457 365,454 a 1.45,1.45 0 0 1 -0.59,-1.14 v 0 c 0,-0.44 0.27,-0.64 0.59,-0.45 l 5.21,3 a 1.43,1.43 0 0 1 0.6,1.14 v 0 c -0.04,0.45 -0.31,0.62 -0.64,0.45 z"
         id="path1442"
         style="fill:#757b89" />
      <path
         class="cls-10"
         d="m 488.09,417.29 -4.84,2.8 c -0.31,0.18 -0.56,0 -0.56,-0.42 v 0 a 1.33,1.33 0 0 1 0.56,-1.06 l 4.84,-2.8 c 0.3,-0.17 0.55,0 0.55,0.42 v 0 a 1.33,1.33 0 0 1 -0.55,1.06 z"
         id="path1444"
         style="fill:#757b89" />
      <path
         class="cls-10"
         d="m 480.67,421.57 -4.84,2.8 c -0.31,0.18 -0.55,0 -0.55,-0.42 v 0 a 1.32,1.32 0 0 1 0.55,-1.06 l 4.84,-2.8 c 0.31,-0.17 0.56,0 0.56,0.42 v 0 a 1.31,1.31 0 0 1 -0.56,1.06 z"
         id="path1446"
         style="fill:#757b89" />
      <path
         class="cls-11"
         d="m 388.72,464.85 -39.36,-22.73 c -3.33,-1.92 -2.92,-5.28 0.93,-7.51 l 95.09,-54.89 c 3.85,-2.23 9.67,-2.47 13,-0.54 l 39.36,22.72 c 3.33,1.93 2.92,5.29 -0.93,7.51 l -95.09,54.9 c -3.84,2.22 -9.66,2.46 -13,0.54 z"
         id="path1448"
         style="fill:#20232d" />
      <path
         class="cls-7"
         d="m 493.52,402.81 -15.36,-8.87 v 0 a 7.27,7.27 0 0 1 -6.58,0 c -1.81,-1 -1.81,-2.75 0,-3.8 v 0 l -15.37,-8.87 a 9.32,9.32 0 0 0 -8.45,0 l -92.6,53.46 c -2.34,1.35 -2.34,3.54 0,4.88 l 37.31,21.54 a 9.32,9.32 0 0 0 8.45,0 l 92.6,-53.46 c 2.34,-1.35 2.34,-3.53 0,-4.88 z"
         id="path1450"
         style="fill:#2b303f" />
      <path
         class="cls-12"
         d="m 493.52,402.81 -15.36,-8.87 v 0 a 7.27,7.27 0 0 1 -6.58,0 c -1.81,-1 -1.81,-2.75 0,-3.8 v 0 l -15.37,-8.87 a 9.32,9.32 0 0 0 -8.45,0 l -92.6,53.46 c -2.34,1.35 -2.34,3.54 0,4.88 l 37.31,21.54 a 9.32,9.32 0 0 0 8.45,0 l 92.6,-53.46 c 2.34,-1.35 2.34,-3.53 0,-4.88 z"
         id="path1452"
         style="opacity:0.5;fill:url(#%D0%91%D0%B5%D0%B7%D1%8B%D0%BC%D1%8F%D0%BD%D0%BD%D1%8B%D0%B9_%D0%B3%D1%80%D0%B0%D0%B4%D0%B8%D0%B5%D0%BD%D1%82_15-2)" />
      <ellipse
         class="cls-7"
         cx="473.82001"
         cy="392.64001"
         rx="1.76"
         ry="1.02"
         id="ellipse1454"
         style="fill:#2b303f" />
      <path
         class="cls-13"
         d="m 473.3,392.94 c -0.29,-0.16 -0.29,-0.43 0,-0.6 a 1.14,1.14 0 0 1 1.05,0 0.32,0.32 0 0 1 0,0.6 1.14,1.14 0 0 1 -1.05,0 z"
         id="path1456"
         style="opacity:0.1;fill:#ffffff" />
    </g>
  </g>
</svg>
