<?xml version="1.0" encoding="UTF-8" standalone="no"?>
<!-- Created with Inkscape (http://www.inkscape.org/) -->

<svg
   width="134.38052mm"
   height="71.854897mm"
   viewBox="0 0 134.38052 71.854897"
   version="1.1"
   id="svg5"
   xml:space="preserve"
   inkscape:export-filename="hard-hat.svg"
   inkscape:export-xdpi="96"
   inkscape:export-ydpi="96"
   xmlns:inkscape="http://www.inkscape.org/namespaces/inkscape"
   xmlns:sodipodi="http://sodipodi.sourceforge.net/DTD/sodipodi-0.dtd"
   xmlns="http://www.w3.org/2000/svg"
   xmlns:svg="http://www.w3.org/2000/svg"><sodipodi:namedview
     id="namedview7"
     pagecolor="#ffffff"
     bordercolor="#666666"
     borderopacity="1.0"
     inkscape:showpageshadow="2"
     inkscape:pageopacity="0.0"
     inkscape:pagecheckerboard="0"
     inkscape:deskcolor="#d1d1d1"
     inkscape:document-units="mm"
     showgrid="false" /><defs
     id="defs2" /><g
     inkscape:label="Layer 1"
     inkscape:groupmode="layer"
     id="layer1"
     transform="translate(-23.580056,-71.763342)"><g
       id="g10488"><path
         style="fill:#d4f048;fill-opacity:0.8893;stroke:none;stroke-width:0.264583px;stroke-linecap:butt;stroke-linejoin:miter;stroke-opacity:1"
         d="m 23.586253,124.80574 c -0.15945,-1.49159 2.812329,-2.8166 2.762281,-4.28341 -0.482259,-14.13404 4.539926,-27.269641 23.265355,-42.336439 1.334824,-7.48494 56.841021,-6.860464 72.406441,6.0107 2.85238,-0.15443 20.319,28.956109 16.36588,33.359559 l 9.43713,10.01454 c -16.24886,6.29628 -11.03016,13.30317 -43.1688,15.68964 -27.013527,-4.33692 -58.886684,-5.7444 -81.068287,-18.45459 z"
         id="path2104"
         sodipodi:nodetypes="cscccccc" /><path
         style="fill:#bad33f;fill-opacity:1;stroke:none;stroke-width:0.264583px;stroke-linecap:butt;stroke-linejoin:miter;stroke-opacity:1"
         d="m 69.453394,137.85298 c 1.112208,0 11.609179,-2.97678 19.882864,-9.29236 21.611572,0.87653 49.390922,-10.92744 49.390922,-10.92744 l 18.65975,8.41752 0.57366,4.04746 c -14.33616,8.36157 -25.75456,11.12849 -52.17752,13.52008 z"
         id="path2928"
         sodipodi:nodetypes="ccccccc" /><path
         style="fill:#bed640;fill-opacity:1;stroke:none;stroke-width:0.264583px;stroke-linecap:butt;stroke-linejoin:miter;stroke-opacity:1"
         d="m 69.458021,74.100682 c 2.715081,2.389993 26.254994,11.033607 40.781969,41.524298 1.83326,0.13282 3.76682,1.21598 5.58507,1.24169 2.15376,0.0305 4.14571,-1.04822 5.61719,-1.62583 1.01407,-0.39806 1.78099,-0.99945 2.1834,-1.88542 -4.5295,-15.406813 -37.669749,-43.997574 -45.256071,-40.594131 3.932264,1.0974 -3.156543,-3.666906 -8.911558,1.339393 z"
         id="path7577"
         sodipodi:nodetypes="ccssccc" /></g></g></svg>
